<svg viewBox="0 0 320 240" fill="none" xmlns="http://www.w3.org/2000/svg" class="w-full h-full">
    

    <!-- Centered Mark -->
    <g transform="translate(110, 20)">
      <!-- Outer Squircle -->
      <rect x="4" y="4" width="92" height="92" rx="26" ry="26" stroke="#FAF7F2" stroke-width="4.5" stroke-linecap="round" stroke-linejoin="round" />
      
      <!-- G Letterform -->
      <path d="M 44 26 C 41 24.5 37 23.5 32.5 23.5 C 20.5 23.5 14 33.5 14 50 C 14 66.5 21 76.5 32.5 76.5 C 38 76.5 42.5 74.5 45.5 71.5" 
            stroke="#FAF7F2" stroke-width="5.2" stroke-linecap="round" />
      <path d="M 45 56 L 45 72" stroke="#FAF7F2" stroke-width="4.8" stroke-linecap="round" />
      <path d="M 34 56 L 47 56" stroke="#FAF7F2" stroke-width="4.5" stroke-linecap="round" />

      <!-- H Letterform -->
      <path d="M 48 37 L 48 76" stroke="#FAF7F2" stroke-width="4.8" stroke-linecap="round" />
      <path d="M 45 37 L 51 37" stroke="#FAF7F2" stroke-width="3" stroke-linecap="round" />
      <path d="M 45 76 L 51 76" stroke="#FAF7F2" stroke-width="3" stroke-linecap="round" />

      <path d="M 48 56 L 68 56" stroke="#FAF7F2" stroke-width="4" stroke-linecap="round" />

      <path d="M 68 28 L 68 76" stroke="#FAF7F2" stroke-width="5" stroke-linecap="round" />
      <path d="M 64 28 L 73 28" stroke="#FAF7F2" stroke-width="3.2" stroke-linecap="round" />
      <path d="M 63 76 L 74 76" stroke="#FAF7F2" stroke-width="3.2" stroke-linecap="round" />

      <!-- Leaf Accent -->
      <path d="M 57 53 C 58 45 64 34 76 26 C 76 36 71 45 61 51 Z" fill="#7C9A82" />
      <path d="M 56 54 Q 65 42 75 27" stroke="#FAF7F2" stroke-width="1.2" stroke-linecap="round" opacity="0.85" />
    </g>

    <!-- Stacked Brand Typography -->
    <text x="160" y="172" 
          font-family="Georgia, 'Times New Roman', serif" 
          font-size="28" 
          font-weight="500" 
          letter-spacing="9" 
          text-anchor="middle" 
          fill="#FAF7F2">
      GROWHERE
    </text>

    <text x="160" y="202" 
          font-family="-apple-system, BlinkMacSystemFont, 'Segoe UI', Roboto, sans-serif" 
          font-size="14" 
          font-weight="300" 
          font-style="italic" 
          letter-spacing="1" 
          text-anchor="middle" 
          fill="#FAF7F2" 
          opacity="0.8">
      Grow a better way of living.
    </text>
  </svg>